<?xml version="1.0" standalone="no"?><svg xmlns="http://www.w3.org/2000/svg" viewBox="0 0 1440 320"><path fill="#C9EFC7" fill-opacity="0.8" d="M0,64L30,90.7C60,117,120,171,180,176C240,181,300,139,360,138.7C420,139,480,181,540,218.7C600,256,660,288,720,272C780,256,840,192,900,181.3C960,171,1020,213,1080,208C1140,203,1200,149,1260,154.7C1320,160,1380,224,1410,256L1440,288L1440,0L1410,0C1380,0,1320,0,1260,0C1200,0,1140,0,1080,0C1020,0,960,0,900,0C840,0,780,0,720,0C660,0,600,0,540,0C480,0,420,0,360,0C300,0,240,0,180,0C120,0,60,0,30,0L0,0Z"></path></svg>